# xmcd
#
# Track frame offsets:
#	150
#	22775
#	32465
#	47120
#	59625
#	77707
#	100330
#	122175
#	140997
#	162067
#	181270
#	203500
#	218785
#	230297
#
# Disc length: 3287 seconds
# Revision: 0
# Processed by: cddbd v1.5.2PL0 Copyright (c) Steve Scherf et al.
# Submitted via: dBpowerAMP V12.0
#
DISCID=b90cd50e
DTITLE=In Flames - The Jester Race ~ Black-Ash Inheritance (Reloaded)
DYEAR=1996
DGENRE=Metal
TTITLE0=Moonshield
TTITLE1=The Jester's Dance
TTITLE2=Artifacts of the Black Rain
TTITLE3=Graveland
TTITLE4=Lord Hypnos
TTITLE5=Dead Eternity
TTITLE6=The Jester Race
TTITLE7=December Flower
TTITLE8=Wayfaerer
TTITLE9=Dead God in Me
TTITLE10=Goliaths Disarm Their Davids
TTITLE11=Gyroscope
TTITLE12=Acoustic Medley
TTITLE13=Behind Space (Live)
EXTD=
EXTT0=
EXTT1=
EXTT2=
EXTT3=
EXTT4=
EXTT5=
EXTT6=
EXTT7=
EXTT8=
EXTT9=
EXTT10=
EXTT11=
EXTT12=
EXTT13=
PLAYORDER=
